<mxfile host="app.diagrams.net">
  <diagram name="Azure ADFS HA">
    <mxGraphModel dx="1422" dy="794" grid="1" gridSize="10" guides="1" tooltips="1" connect="1" arrows="1" fold="1" page="1" pageScale="1" pageWidth="827" pageHeight="1169">
      <root>
        <mxCell id="0"/>
        <mxCell id="1" parent="0"/>
        
        <!-- Availability Set 1 -->
        <mxCell id="2" value="Availability Set 1 (Primary)" style="rounded=1;whiteSpace=wrap;html=1;fillColor=#e1f5fe;strokeColor=#01579b;dashed=1;" vertex="1" parent="1">
          <mxGeometry x="50" y="50" width="300" height="200" as="geometry"/>
        </mxCell>
        
        <!-- ADFS Servers Set 1 -->
        <mxCell id="3" value="ADFS 1" style="rounded=1;whiteSpace=wrap;html=1;fillColor=#fff3e0;strokeColor=#ff8f00;" vertex="1" parent="1">
          <mxGeometry x="80" y="100" width="60" height="40" as="geometry"/>
        </mxCell>
        <mxCell id="4" value="ADFS 2" style="rounded=1;whiteSpace=wrap;html=1;fillColor=#fff3e0;strokeColor=#ff8f00;" vertex="1" parent="1">
          <mxGeometry x="160" y="100" width="60" height="40" as="geometry"/>
        </mxCell>
        <mxCell id="5" value="ADFS 5" style="rounded=1;whiteSpace=wrap;html=1;fillColor=#fff3e0;strokeColor=#ff8f00;" vertex="1" parent="1">
          <mxGeometry x="120" y="180" width="60" height="40" as="geometry"/>
        </mxCell>
        
        <!-- Availability Set 2 -->
        <mxCell id="6" value="Availability Set 2 (Secondary)" style="rounded=1;whiteSpace=wrap;html=1;fillColor=#f3e5f5;strokeColor=#8e24aa;dashed=1;" vertex="1" parent="1">
          <mxGeometry x="450" y="50" width="300" height="200" as="geometry"/>
        </mxCell>
        
        <!-- ADFS Servers Set 2 -->
        <mxCell id="7" value="ADFS 3" style="rounded=1;whiteSpace=wrap;html=1;fillColor=#fff3e0;strokeColor=#ff8f00;" vertex="1" parent="1">
          <mxGeometry x="480" y="100" width="60" height="40" as="geometry"/>
        </mxCell>
        <mxCell id="8" value="ADFS 4" style="rounded=1;whiteSpace=wrap;html=1;fillColor=#fff3e0;strokeColor=#ff8f00;" vertex="1" parent="1">
          <mxGeometry x="560" y="100" width="60" height="40" as="geometry"/>
        </mxCell>
        <mxCell id="9" value="ADFS 6" style="rounded=1;whiteSpace=wrap;html=1;fillColor=#fff3e0;strokeColor=#ff8f00;" vertex="1" parent="1">
          <mxGeometry x="520" y="180" width="60" height="40" as="geometry"/>
        </mxCell>
        
        <!-- Traffic Managers -->
        <mxCell id="10" value="Azure Traffic Manager (Health Checks)" style="rounded=1;whiteSpace=wrap;html=1;fillColor=#e8f5e8;strokeColor=#388e3c;" vertex="1" parent="1">
          <mxGeometry x="100" y="300" width="200" height="60" as="geometry"/>
        </mxCell>
        <mxCell id="11" value="Azure Traffic Manager (Failover)" style="rounded=1;whiteSpace=wrap;html=1;fillColor=#fce4ec;strokeColor=#c2185b;" vertex="1" parent="1">
          <mxGeometry x="500" y="300" width="200" height="60" as="geometry"/>
        </mxCell>
        
        <!-- Application Gateway -->
        <mxCell id="12" value="Application Gateway (SSL Termination & WAF)" style="rounded=1;whiteSpace=wrap;html=1;fillColor=#e0f2f1;strokeColor=#00695c;" vertex="1" parent="1">
          <mxGeometry x="250" y="450" width="300" height="60" as="geometry"/>
        </mxCell>
        
        <!-- Arrows -->
        <mxCell id="13" style="edgeStyle=orthogonalEdgeStyle;rounded=0;orthogonalLoop=1;jettySize=auto;html=1;" edge="1" parent="1" source="2" target="10"/>
        <mxCell id="14" style="edgeStyle=orthogonalEdgeStyle;rounded=0;orthogonalLoop=1;jettySize=auto;html=1;" edge="1" parent="1" source="6" target="11"/>
        <mxCell id="15" style="edgeStyle=orthogonalEdgeStyle;rounded=0;orthogonalLoop=1;jettySize=auto;html=1;dashed=1;" edge="1" parent="1" source="10" target="11"/>
        <mxCell id="16" style="edgeStyle=orthogonalEdgeStyle;rounded=0;orthogonalLoop=1;jettySize=auto;html=1;" edge="1" parent="1" source="10" target="12"/>
        <mxCell id="17" style="edgeStyle=orthogonalEdgeStyle;rounded=0;orthogonalLoop=1;jettySize=auto;html=1;" edge="1" parent="1" source="11" target="12"/>
        <mxCell id="18" style="edgeStyle=orthogonalEdgeStyle;rounded=0;orthogonalLoop=1;jettySize=auto;html=1;dashed=1;" edge="1" parent="1" source="2" target="6"/>
      </root>
    </mxGraphModel>
  </diagram>
</mxfile>